<svg xmlns="http://www.w3.org/2000/svg" viewBox="0 0 128.16 184.34"><defs><style>.cls-1{isolation:isolate;}.cls-2{fill:#fff98f;}.cls-3{fill:#fff148;opacity:0.4;mix-blend-mode:multiply;}</style></defs><title>Recurso 6</title><g class="cls-1"><g id="Capa_2" data-name="Capa 2"><g id="Capa_1-2" data-name="Capa 1"><path class="cls-2" d="M127,44.73l-2.65-1.35a2.06,2.06,0,0,1-1.12-1.69l-.76-11.15a2.06,2.06,0,0,1,.88-1.83L125.92,27a2.06,2.06,0,0,0,.75-2.41l-2.4-6.38A2.06,2.06,0,0,0,121.65,17l-3.73,1.35a2.06,2.06,0,0,1-2.13-.46l-7.88-7.64a2.06,2.06,0,0,1-.56-2l.82-3.17a2.06,2.06,0,0,0-1.28-2.44L100.2.13a2.06,2.06,0,0,0-2.61,1.14l-1.34,3.2A2.06,2.06,0,0,1,94.5,5.72l-11.83.81a2.06,2.06,0,0,1-2-1.13L79.3,2.62a2.06,2.06,0,0,0-2.73-.93l-6.13,3a2.06,2.06,0,0,0-1,2.63l1.17,2.85a2.06,2.06,0,0,1-.39,2.17L62.6,20.57a2.06,2.06,0,0,1-2,.6l-3-.78a2.06,2.06,0,0,0-2.48,1.39l-2.18,7.15A2.06,2.06,0,0,0,54,31.39l3,1.36a2.06,2.06,0,0,1,1.19,1.73L59,46.79a2.06,2.06,0,0,1-1.22,2l-2.07.92a2.06,2.06,0,0,0-1,2.79l3,6.1a2.06,2.06,0,0,0,2.83.89l3-1.62a2.06,2.06,0,0,1,2.53.45L73,66.26A2.06,2.06,0,0,1,73.43,68l-.75,3.62A2.06,2.06,0,0,0,74,74l6.72,2.49a2.06,2.06,0,0,0,2.63-1.19l1.34-3.51a2.06,2.06,0,0,1,1.85-1.32l12-.4a2.06,2.06,0,0,1,1.77.9l2.2,3.25a2.06,2.06,0,0,0,2.71.64l6.11-3.42a2.06,2.06,0,0,0,1-2.36l-1.2-4.2a2.06,2.06,0,0,1,.47-2l6.34-6.83a2.06,2.06,0,0,1,2-.6l3.55.83a2.06,2.06,0,0,0,2.44-1.43l2.23-7.74A2.06,2.06,0,0,0,127,44.73ZM91.85,58.52A20.25,20.25,0,1,1,110.43,37,20.13,20.13,0,0,1,91.85,58.52Z"/><path class="cls-3" d="M90.39,58.56A20.26,20.26,0,0,1,89.1,18.11c.41,0,.81,0,1.21,0L90.29,6l-7.62.52a2.06,2.06,0,0,1-2-1.13L79.3,2.62a2.06,2.06,0,0,0-2.73-.93l-6.13,3a2.06,2.06,0,0,0-1,2.63l1.17,2.85a2.06,2.06,0,0,1-.39,2.17L62.6,20.57a2.06,2.06,0,0,1-2,.6l-3-.78a2.06,2.06,0,0,0-2.48,1.39l-2.18,7.15A2.06,2.06,0,0,0,54,31.39l3,1.36a2.06,2.06,0,0,1,1.19,1.73L59,46.79a2.06,2.06,0,0,1-1.22,2l-2.07.92a2.06,2.06,0,0,0-1,2.79l3,6.1a2.06,2.06,0,0,0,2.83.89l3-1.62a2.06,2.06,0,0,1,2.53.45L73,66.26A2.06,2.06,0,0,1,73.43,68l-.75,3.62A2.06,2.06,0,0,0,74,74l6.72,2.49a2.06,2.06,0,0,0,2.63-1.19l1.34-3.51a2.06,2.06,0,0,1,1.85-1.32l3.9-.13Z"/><path class="cls-2" d="M0,127.13v7.4a4.55,4.55,0,0,0,4.55,4.55h2.6a4.55,4.55,0,0,1,4.09,2.56l5.89,12.14a4.55,4.55,0,0,1-.76,5.09l-1.26,1.36a4.55,4.55,0,0,0,.26,6.45l5.16,4.73a4.55,4.55,0,0,0,6.53-.39l.95-1.1a4.55,4.55,0,0,1,4.89-1.36l15,5A4.55,4.55,0,0,1,51,177.86v1.93a4.55,4.55,0,0,0,5.23,4.5l7.4-1.12a4.55,4.55,0,0,0,3.87-4.5v-3a4.55,4.55,0,0,1,2.82-4.21L82,166.6a4.55,4.55,0,0,1,4.58.65l2.07,1.65a4.55,4.55,0,0,0,6.21-.49l4.21-4.63a4.55,4.55,0,0,0-.15-6.28l-1.23-1.23a4.55,4.55,0,0,1-1.12-4.59l4.8-15.14a4.55,4.55,0,0,1,3.69-3.13l3.36-.48a4.55,4.55,0,0,0,3.89-4.94l-.69-7.17a4.55,4.55,0,0,0-4.41-4.11l-2.35-.06a4.55,4.55,0,0,1-4-2.71L95.6,102.08a4.55,4.55,0,0,1,.59-4.65l1.26-1.6a4.55,4.55,0,0,0-.44-6.1L91.85,84.8a4.55,4.55,0,0,0-6-.29l-2,1.55a4.55,4.55,0,0,1-4.25.74L64.11,81.62A4.55,4.55,0,0,1,61,77.3V76.13a4.55,4.55,0,0,0-4.55-4.55h-6.9A4.55,4.55,0,0,0,45,76.13v3.21a4.55,4.55,0,0,1-2.42,4l-10.9,5.79a4.55,4.55,0,0,1-5-.51l-2.82-2.32a4.55,4.55,0,0,0-6.25.44l-5.25,5.72a4.55,4.55,0,0,0,0,6.17l1.82,2a4.55,4.55,0,0,1,1,4.5l-4.65,14.31a4.55,4.55,0,0,1-4.33,3.14H4.55A4.55,4.55,0,0,0,0,127.13Zm28.5.7a27.75,27.75,0,1,1,27.75,27.75A27.75,27.75,0,0,1,28.5,127.83Z"/><path class="cls-3" d="M4.55,122.58H6.19a4.55,4.55,0,0,0,4.33-3.14l4.65-14.31a4.55,4.55,0,0,0-1-4.5l-1.82-2a4.55,4.55,0,0,1,0-6.17l5.25-5.72a4.55,4.55,0,0,1,6.25-.44l2.82,2.32a4.55,4.55,0,0,0,5,.51l10.9-5.79a4.55,4.55,0,0,0,2.42-4V76.13a4.55,4.55,0,0,1,4.55-4.55H56v28.51a27.74,27.74,0,0,0,0,55.49v28.74a4.55,4.55,0,0,1-5-4.52v-1.93a4.55,4.55,0,0,0-3.11-4.32l-15-5A4.55,4.55,0,0,0,28,169.9l-.95,1.1a4.55,4.55,0,0,1-6.53.39l-5.16-4.73a4.55,4.55,0,0,1-.26-6.45l1.26-1.36a4.55,4.55,0,0,0,.76-5.09l-5.89-12.14a4.55,4.55,0,0,0-4.09-2.56H4.55A4.55,4.55,0,0,1,0,134.53v-7.4A4.55,4.55,0,0,1,4.55,122.58Z"/></g></g></g></svg>