<svg xmlns="http://www.w3.org/2000/svg" viewBox="0 0 169.15 90"><defs><style>.cls-1{fill:#ccc9c6;}.cls-2{fill:#6b6b69;}.cls-3{fill:#30e8ff;}.cls-4{fill:#cf1de6;}.cls-5{fill:#cf3e66;}.cls-6{fill:#5bdf00;}.cls-7{fill:#fff;}</style></defs><title>Recurso 4</title><g id="Capa_2" data-name="Capa 2"><g id="Capa_1-2" data-name="Capa 1"><rect class="cls-1" width="79.15" height="90"/><rect class="cls-2" x="2" y="6.55" width="75.15" height="82.45"/><rect class="cls-3" x="17.68" y="19.4" width="13.48" height="2.36"/><rect class="cls-4" x="32.36" y="19.3" width="11.79" height="2.36"/><rect class="cls-5" x="13.64" y="15.38" width="15.05" height="1.77"/><rect class="cls-3" x="17.68" y="22.4" width="13.48" height="2.36"/><rect class="cls-4" x="32.36" y="22.3" width="11.79" height="2.36"/><rect class="cls-3" x="17.68" y="25.4" width="13.48" height="2.36"/><rect class="cls-4" x="32.36" y="25.3" width="11.79" height="2.36"/><rect class="cls-3" x="17.68" y="33.4" width="13.48" height="2.36"/><rect class="cls-4" x="32.36" y="33.3" width="11.79" height="2.36"/><rect class="cls-5" x="13.64" y="29.38" width="15.05" height="1.77"/><rect class="cls-3" x="17.68" y="36.4" width="13.48" height="2.36"/><rect class="cls-4" x="32.36" y="36.3" width="11.79" height="2.36"/><rect class="cls-3" x="17.68" y="45.4" width="13.48" height="2.36"/><rect class="cls-4" x="32.36" y="45.3" width="11.79" height="2.36"/><rect class="cls-6" x="13.64" y="41.38" width="15.05" height="1.77"/><rect class="cls-3" x="17.68" y="48.4" width="13.48" height="2.36"/><rect class="cls-4" x="32.36" y="48.3" width="11.79" height="2.36"/><rect class="cls-3" x="17.68" y="56.4" width="13.48" height="2.36"/><rect class="cls-4" x="32.36" y="56.3" width="11.79" height="2.36"/><rect class="cls-5" x="13.64" y="52.38" width="15.05" height="1.77"/><rect class="cls-3" x="17.68" y="59.4" width="13.48" height="2.36"/><rect class="cls-4" x="32.36" y="59.3" width="11.79" height="2.36"/><rect class="cls-3" x="17.68" y="62.4" width="13.48" height="2.36"/><rect class="cls-4" x="32.36" y="62.3" width="11.79" height="2.36"/><rect class="cls-3" x="17.68" y="70.4" width="13.48" height="2.36"/><rect class="cls-4" x="32.36" y="70.3" width="11.79" height="2.36"/><rect class="cls-5" x="13.64" y="66.38" width="15.05" height="1.77"/><rect class="cls-3" x="17.68" y="73.4" width="13.48" height="2.36"/><rect class="cls-4" x="32.36" y="73.3" width="11.79" height="2.36"/><rect class="cls-3" x="17.68" y="82.4" width="13.48" height="2.36"/><rect class="cls-4" x="32.36" y="82.3" width="11.79" height="2.36"/><rect class="cls-6" x="13.64" y="78.38" width="15.05" height="1.77"/><rect class="cls-3" x="17.68" y="85.4" width="13.48" height="2.36"/><rect class="cls-4" x="32.36" y="85.3" width="11.79" height="2.36"/><rect class="cls-2" x="90" width="79.15" height="90"/><rect class="cls-7" x="92" y="6.55" width="75.15" height="82.45"/><rect class="cls-1" x="107.68" y="19.4" width="29.93" height="2.36"/><rect class="cls-1" x="113.36" y="24.3" width="29.93" height="2.36"/><rect class="cls-1" x="108.36" y="29" width="29.93" height="2.36"/><rect class="cls-1" x="103.64" y="15.38" width="15.05" height="1.77"/><rect class="cls-1" x="103.64" y="33.3" width="15.05" height="1.77"/><rect class="cls-1" x="107.68" y="42.4" width="29.93" height="2.36"/><rect class="cls-1" x="113.36" y="47.3" width="29.93" height="2.36"/><rect class="cls-1" x="108.36" y="52" width="29.93" height="2.36"/><rect class="cls-1" x="103.64" y="38.38" width="15.05" height="1.77"/><rect class="cls-1" x="103.64" y="56.3" width="15.05" height="1.77"/><rect class="cls-1" x="107.68" y="65.4" width="29.93" height="2.36"/><rect class="cls-1" x="113.36" y="70.3" width="29.93" height="2.36"/><rect class="cls-1" x="108.36" y="75" width="29.93" height="2.36"/><rect class="cls-1" x="103.64" y="61.38" width="15.05" height="1.77"/><rect class="cls-1" x="103.64" y="79.3" width="15.05" height="1.77"/></g></g></svg>