<svg xmlns="http://www.w3.org/2000/svg" viewBox="0 0 105.94 144.24"><defs><style>.cls-1{isolation:isolate;}.cls-2{fill:#fff98f;}.cls-3{fill:#fff148;opacity:0.4;mix-blend-mode:multiply;}</style></defs><title>Recurso 7</title><g class="cls-1"><g id="Capa_2" data-name="Capa 2"><g id="Capa_1-2" data-name="Capa 1"><path class="cls-2" d="M5.45,15.93,13.32,1.05A2,2,0,0,1,15.07,0h7.62a2,2,0,0,1,1.75,1.05L32.35,16a2,2,0,0,1-.06,2L25.17,29.52a2,2,0,0,0-.29,1V63.83a2,2,0,0,0,2.08,2c4.62-.26,15.27.25,14.17,10.63a12.31,12.31,0,0,0,0,2.82c.27,2.2.28,6.53-3.89,6.74a2,2,0,0,0-.67.14c-1.49.62-6.8,3.4,2.32,8.33a2,2,0,0,1,1,1.73v36.33a2,2,0,0,1-.22.91c-1.17,2.23-7,12.17-17.51,10.6a1.79,1.79,0,0,0-.52,0c-2.08.3-16.81,1.88-19.71-11.82a2.13,2.13,0,0,1,0-.44V95.62a2,2,0,0,1,1.51-1.93c2.77-.66,8.11-2.45,5.29-6A4.73,4.73,0,0,0,5.45,86c-2-.22-5.33-1.44-5.09-7.23a1.85,1.85,0,0,0,0-.48c-.39-1.76-2.47-13.54,12-12.94a2,2,0,0,0,2.09-2V31.13A2,2,0,0,0,14,30L5.58,18A2,2,0,0,1,5.45,15.93Z"/><path class="cls-3" d="M36.53,86.13A2,2,0,0,1,37.2,86c4.17-.21,4.17-4.54,3.89-6.74a12.31,12.31,0,0,1,0-2.82C42.22,66.05,31.58,65.54,27,65.8a2,2,0,0,1-2.08-2V30.56a2,2,0,0,1,.29-1L32.29,18a2,2,0,0,0,.06-2L24.44,1.05A2,2,0,0,0,22.69,0H17.88V144.24a24.08,24.08,0,0,0,3.76-.2,1.79,1.79,0,0,1,.52,0c10.5,1.56,16.34-8.37,17.51-10.6a2,2,0,0,0,.22-.91V96.2a2,2,0,0,0-1-1.73C29.73,89.53,35,86.76,36.53,86.13Z"/><path class="cls-2" d="M95,35.66c5.87-3,10.33-8.45,10.89-14.66.93-10.34-9.12-19.78-11.3-18.85-.35.15-.7.55-.7,1.85,0,10,3,16-8,16-12,0-9-5-9-16,0-.86-.2-1.34-.56-1.52-2-.95-11.75,7.87-11.44,17.52.21,6.32,4.72,12.32,10.89,15.54v77.8h0a15.5,15.5,0,1,0,19.19,0h0ZM92.88,130l-7,3.5-7-4v-7l7-5,7,4.5Z"/><path class="cls-3" d="M85.88,133.5l-7-4v-7l7-5V20c-12,0-9-5-9-16,0-.86-.2-1.34-.56-1.52-2-.95-11.75,7.87-11.44,17.52.21,6.32,4.72,12.32,10.89,15.54v77.8h0A15.49,15.49,0,0,0,85.38,141l.5,0Z"/></g></g></g></svg>