<svg xmlns="http://www.w3.org/2000/svg" viewBox="0 0 161 170.06"><defs><style>.cls-1{isolation:isolate;}.cls-2{fill:#97daff;}.cls-3{fill:#f2ae75;}.cls-11,.cls-4{fill:#f6ccb8;}.cls-11,.cls-13,.cls-14,.cls-4,.cls-5{mix-blend-mode:multiply;}.cls-5{fill:#f7cdb9;}.cls-6{fill:#3c2415;}.cls-14,.cls-7{fill:#fff;}.cls-8{fill:#f15d44;}.cls-9{fill:#e6e7e8;}.cls-10{fill:#ce3a3a;}.cls-11{opacity:0.29;}.cls-12{fill:#3c2417;}.cls-13{fill:#dcffeb;}.cls-13,.cls-14{opacity:0.31;}.cls-15{fill:#ea6a6a;}.cls-16{fill:#cec8c8;}.cls-17{fill:#3a3939;}.cls-18{fill:#757575;opacity:0.39;}.cls-19{fill:#b5b0b0;opacity:0.6;}</style></defs><title>Recurso 2</title><g class="cls-1"><g id="Capa_2" data-name="Capa 2"><g id="Capa_1-2" data-name="Capa 1"><circle class="cls-2" cx="80.5" cy="89.23" r="80.5"/><polygon class="cls-3" points="93.17 73.83 90.03 72.39 90.03 61.56 69.86 61.56 69.86 72.39 66.71 73.75 67.55 102.06 69.86 102.06 69.86 106.41 90.03 106.41 90.03 102.06 92.33 102.06 93.17 73.83"/><polygon class="cls-4" points="69.86 61.56 69.86 70.47 90.03 71.73 90.03 61.56 69.86 61.56"/><path class="cls-3" d="M101.94,34.83l.68-8.87c0-11.6-11.09-21-22.68-21s-22.68,9.4-22.68,21l.68,8.86a4.11,4.11,0,0,0-1.72.87,4.18,4.18,0,0,0-1.48,3.2v4.37a4.19,4.19,0,0,0,4.17,4.2c0,11,13.16,21.34,21,21.34s21-10.38,21-21.34a4.2,4.2,0,0,0,4.17-4.2V38.9A4.19,4.19,0,0,0,101.94,34.83Z"/><circle class="cls-5" cx="70.35" cy="37.74" r="3.32" transform="translate(-1.27 2.48) rotate(-2)"/><circle class="cls-6" cx="70.35" cy="36.9" r="3.32" transform="translate(-1.24 2.48) rotate(-2)"/><circle class="cls-7" cx="71.48" cy="38.38" r="0.83" transform="translate(-1.3 2.52) rotate(-2)"/><circle class="cls-5" cx="89.67" cy="37.74" r="3.32" transform="translate(-1.26 3.15) rotate(-2)"/><circle class="cls-6" cx="89.67" cy="36.9" r="3.32" transform="translate(-1.23 3.15) rotate(-2)"/><circle class="cls-7" cx="90.8" cy="38.38" r="0.83" transform="translate(-1.28 3.19) rotate(-2)"/><path class="cls-7" d="M93.45,69.9l-.75,2.81c-1.3,3.71-4.62,9.79-12.51,9.79-8.9,0-12.3-7.73-13.35-11.08l-.4-1.52C50,76.06,55.07,127.41,55.07,127.41L55,170.06h51.38l-.69-42.65S109.85,76.06,93.45,69.9Z"/><polygon class="cls-8" points="84.79 81.11 82.86 84.82 76.97 84.82 75.09 81.11 79.94 77.14 84.79 81.11"/><path class="cls-9" d="M79.94,77.15l-6.2,6.53L63.14,71l6.62-3.29L72.24,70Z"/><polygon class="cls-9" points="90.13 67.73 79.94 77.14 86.14 83.68 96.74 71.02 90.13 67.73"/><polygon class="cls-8" points="82.86 85.7 85.25 162.88 79.94 168.76 74.63 162.88 76.97 85.7 82.86 85.7"/><path class="cls-10" d="M135.1,129.24a22.9,22.9,0,0,0-.07-14.49c-3.09-9.11-9-28.26-10.63-31.91-3.7-8.06-15.6-7.76-30.47-12.87l-1.61-.56h0c-.87,5.11-12.39,54.47-12.39,54.47S68.42,74.51,67.55,69.4h0L65.94,70c-14.87,5.12-26.77,4.82-30.47,12.87-1.65,3.65-7.54,22.8-10.63,31.91a22.91,22.91,0,0,0-.07,14.49c3.41,10.41,10.41,24.56,13.44,29,2.69,4,7.39,5.45,10.79,4.32-.46,2.15-.61,3.75-.13,3.75H79.94v0H111c.49,0,.34-1.6-.13-3.75,3.4,1.12,8.1-.32,10.79-4.32C124.68,153.79,131.69,139.64,135.1,129.24Z"/><path class="cls-4" d="M83.7,46.64c-2.11,1.79-5,1.87-6.4.18"/><path class="cls-11" d="M101.94,34.83l.68-8.87C102.62,14.38,91.57,5,80,5V68.8c7.87-.05,21-10.41,21-21.33a4.2,4.2,0,0,0,4.17-4.2V38.9A4.19,4.19,0,0,0,101.94,34.83Z"/><path class="cls-12" d="M54.8,11.14c.09-1.34,3.38-1.2,2.57-2.27C49-2.27,79.51,6.54,70.61,3.06,57-2.27,86.79.19,92.23,4.2a.69.69,0,0,0,.25.12C112.65,9.08,107,32.16,104.06,40.93a.73.73,0,0,1-1.42-.19c-.35-4.69-1.5-12.89-5.25-17.69a3.51,3.51,0,0,0-4.59-.75c-11.16,6.77-22.28,7.52-29.59,3.87a2.11,2.11,0,0,0-3,1.33A49.18,49.18,0,0,0,59,39a.73.73,0,0,1-1.44.17c-1.18-4.68-2.33-11.85-.77-18.55a.7.7,0,0,0-.07-.5A15.93,15.93,0,0,1,54.8,11.14Z"/><path class="cls-4" d="M101.38,10.15s.64,4.94-5.13,10.37"/><path class="cls-4" d="M66.94,23.43s-3.49,2.08-8.56-2.34"/><path class="cls-4" d="M86,15.15s-10,1.64-24.58-3.44"/><path class="cls-4" d="M84.73,6.49s-4.6,2.06-11.34-2.4"/><rect x="78" y="34.73" width="5" height="2"/><path d="M75,30.84H63.19A4.22,4.22,0,0,0,58.92,35v2.61a8.67,8.67,0,0,0,8.78,8.56h0A11.4,11.4,0,0,0,79.21,35h0A4.17,4.17,0,0,0,75,30.84ZM76.69,36a8.44,8.44,0,0,1-8.52,8.31H67.4a6.43,6.43,0,0,1-6.51-6.34V34.71a2.31,2.31,0,0,1,2.34-2.28H74a2.68,2.68,0,0,1,2.71,2.64Z"/><path class="cls-13" d="M63.09,32.59H74.15a2.54,2.54,0,0,1,2.54,2.54v1.3a8,8,0,0,1-8,8H67a6.1,6.1,0,0,1-6.1-6.1V34.78a2.19,2.19,0,0,1,2.19-2.19Z"/><path d="M60.26,32.43h3.68V31.6a.77.77,0,0,0-.78-.76H58.64a.77.77,0,0,0-.78.76v1.68a.77.77,0,0,0,.78.76h1.62Z"/><path class="cls-14" d="M58.64,34H59a4.06,4.06,0,0,0-.12,1v2.61a8.44,8.44,0,0,0,0,.89H78.61a10.86,10.86,0,0,0,.6-3.55h0A4.17,4.17,0,0,0,75,30.84H58.64a.77.77,0,0,0-.78.76v1.68A.77.77,0,0,0,58.64,34Zm2.26.68a2.31,2.31,0,0,1,2.34-2.28H74a2.68,2.68,0,0,1,2.71,2.64v.16A2.68,2.68,0,0,0,74,32.59H63.24a2.31,2.31,0,0,0-2.34,2.28Z"/><path d="M81.65,35h0A11.4,11.4,0,0,0,93.16,46.17h0a8.67,8.67,0,0,0,8.78-8.56V35a4.22,4.22,0,0,0-4.27-4.16H85.87A4.17,4.17,0,0,0,81.65,35Zm2.51.12a2.68,2.68,0,0,1,2.71-2.64H97.62A2.31,2.31,0,0,1,100,34.71v3.21a6.43,6.43,0,0,1-6.51,6.34h-.77A8.44,8.44,0,0,1,84.16,36Z"/><path class="cls-13" d="M90.26,32.59H92a8,8,0,0,1,8,8v1.3a2.54,2.54,0,0,1-2.54,2.54H86.36a2.19,2.19,0,0,1-2.19-2.19V38.69a6.1,6.1,0,0,1,6.1-6.1Z" transform="translate(184.12 77.01) rotate(180)"/><path d="M100.6,32.43H96.92V31.6a.77.77,0,0,1,.78-.76h4.53a.77.77,0,0,1,.78.76v1.68a.77.77,0,0,1-.78.76H100.6Z"/><path class="cls-14" d="M103,33.27V31.6a.77.77,0,0,0-.78-.76H85.87A4.17,4.17,0,0,0,81.65,35h0a10.86,10.86,0,0,0,.6,3.55h19.64a8.44,8.44,0,0,0,0-.89V35a4.06,4.06,0,0,0-.12-1h.4A.77.77,0,0,0,103,33.27Zm-3,1.6a2.31,2.31,0,0,0-2.34-2.28H86.87a2.68,2.68,0,0,0-2.71,2.64v-.16a2.68,2.68,0,0,1,2.71-2.64H97.62A2.31,2.31,0,0,1,100,34.71Z"/><path class="cls-15" d="M87.2,55.63a7.2,7.2,0,1,1-14.4,0"/><path class="cls-7" d="M73,55.73H87a0,0,0,0,1,0,0v1.4a.6.6,0,0,1-.6.6H73.6a.6.6,0,0,1-.6-.6v-1.4A0,0,0,0,1,73,55.73Z"/><path class="cls-16" d="M42.81,111.73h73.38a1.81,1.81,0,0,1,1.81,1.81v53.19a0,0,0,0,1,0,0H41a0,0,0,0,1,0,0V113.55A1.81,1.81,0,0,1,42.81,111.73Z"/><path class="cls-17" d="M40.09,166.73h78.78a1.13,1.13,0,0,1,1.13,1.13v.75a1.13,1.13,0,0,1-1.12,1.13H40.09A1.09,1.09,0,0,1,39,168.64v-.81a1.09,1.09,0,0,1,1.09-1.09Z"/><rect class="cls-18" x="47" y="117.73" width="11" height="2"/><polygon class="cls-19" points="41 166.02 41 166.73 118 166.73 118 111.73 41 166.02"/></g></g></g></svg>