<svg xmlns="http://www.w3.org/2000/svg" viewBox="0 0 1625.82 476.95"><defs><style>.cls-1{isolation:isolate;}.cls-2{fill:#97daff;}.cls-3{opacity:0.71;}.cls-4{fill:#bffff1;}.cls-11,.cls-5{fill:none;}.cls-5,.cls-8{stroke:#7fa7ff;}.cls-11,.cls-5,.cls-8{stroke-miterlimit:10;}.cls-5{stroke-width:3px;}.cls-10,.cls-6{fill:#fff;}.cls-12,.cls-7{fill:#7fa7ff;}.cls-8{fill:#9fd8ff;stroke-width:2px;}.cls-9{fill:#dcffeb;}.cls-10,.cls-9{opacity:0.31;}.cls-10,.cls-12,.cls-9{mix-blend-mode:multiply;}.cls-11{stroke:#000;stroke-width:5px;}.cls-12{opacity:0.3;}</style></defs><title>Recurso 6</title><g class="cls-1"><g id="Capa_2" data-name="Capa 2"><g id="Capa_1-2" data-name="Capa 1"><path class="cls-2" d="M729.43,208.35a37.92,37.92,0,0,1,34.82,22.91h39.4a75.71,75.71,0,1,0,0,30h-39.4a37.92,37.92,0,1,1-34.82-52.92Z"/><path class="cls-2" d="M892.3,170.56A75.71,75.71,0,1,0,968,246.27,75.71,75.71,0,0,0,892.3,170.56Zm0,113.62a37.91,37.91,0,1,1,37.91-37.91A37.91,37.91,0,0,1,892.3,284.18Z"/><path class="cls-2" d="M1247.29,170.56a75.71,75.71,0,1,0,74.22,90.71h-39.4a37.92,37.92,0,0,1-72.74-15c0-.15,0-.3,0-.45h104a8.15,8.15,0,0,0,8.15-8.15v-5.08a5.14,5.14,0,0,0-.19-1.33h.19A75.73,75.73,0,0,0,1247.29,170.56Zm0,37.79a37.87,37.87,0,0,1,32.86,19h-65.74A37.89,37.89,0,0,1,1247.29,208.35Z"/><path class="cls-2" d="M1115.65,202.12a75.71,75.71,0,1,0,0,88.3V322h38V93h-38Zm-61.48,82.06a37.91,37.91,0,1,1,37.91-37.91A37.91,37.91,0,0,1,1054.17,284.18Z"/><polygon class="cls-2" points="1403.18 221.46 1375.39 169.59 1321.04 169.59 1403.18 322.94 1485.31 169.59 1430.96 169.59 1403.18 221.46"/><polygon class="cls-2" points="650.16 363.48 650.16 297.71 595.46 246.26 650.16 194.82 650.16 129.05 525.52 246.26 650.16 363.48"/><polygon class="cls-2" points="1501.17 129.05 1501.17 194.82 1555.88 246.26 1501.17 297.71 1501.17 363.48 1625.82 246.26 1501.17 129.05"/><g class="cls-3"><polygon class="cls-4" points="525.52 245.76 595.46 245.76 650.16 194.31 650.16 128.55 525.52 245.76"/><path class="cls-4" d="M729.43,207.84a37.92,37.92,0,0,1,34.82,22.91h39.4a75.71,75.71,0,0,0-149.93,15h37.79A37.91,37.91,0,0,1,729.43,207.84Z"/><path class="cls-4" d="M892.3,207.84a37.91,37.91,0,0,1,37.91,37.91H968a75.71,75.71,0,1,0-151.41,0h37.79A37.91,37.91,0,0,1,892.3,207.84Z"/><path class="cls-4" d="M1016.28,245.76a37.9,37.9,0,0,1,75.78,0h61.59V93.43h-38V202.57a75.68,75.68,0,0,0-137.17,43.19Z"/><path class="cls-4" d="M1209.39,245.3h104a8.15,8.15,0,0,0,8.15-8.15v-5.08a5.14,5.14,0,0,0-.19-1.33h.19a75.71,75.71,0,0,0-149.93,15h37.79C1209.38,245.61,1209.39,245.46,1209.39,245.3Zm37.9-37.46a37.87,37.87,0,0,1,32.86,19h-65.74A37.89,37.89,0,0,1,1247.29,207.84Z"/><polygon class="cls-4" points="1444.24 245.76 1485.31 169.09 1430.96 169.09 1403.18 220.96 1375.39 169.09 1321.04 169.09 1362.11 245.76 1444.24 245.76"/><polygon class="cls-4" points="1625.82 245.76 1501.17 128.55 1501.17 194.31 1555.88 245.76 1625.82 245.76"/></g><path class="cls-4" d="M286.86,83.81c-4-12.75-12.34-32.59-30.35-50.09C212.42-9.12,150,.5,141.89,1.89a142.35,142.35,0,0,1,27.94,79.53c1.53,45.28-19.37,77.13-26.4,87,13.67-19.44,46.11-59.31,101.35-76.7A180.44,180.44,0,0,1,286.86,83.81Z"/><path class="cls-4" d="M299.63,437l-75.74,37.77a20.57,20.57,0,0,1-18.36,0l-76.7-38.24c-160-79.77-160.23-296.21,1-373.67,27-13,55.46-20.76,84.84-20.76,25.63,0,50.54,5.93,74.41,16C459,130.19,464.21,355,299.63,437Z"/><path class="cls-4" d="M192.24,83.18A74.4,74.4,0,0,0,168.7,55.3C137.4,33.21,99.94,45.19,95.06,46.83A88.7,88.7,0,0,1,120,93.07a89,89,0,0,1-7.81,56.1Z"/><path class="cls-5" d="M222.61,75.33a74.4,74.4,0,0,0-36.25,4.27c-35.68,13.93-46.34,51.79-47.65,56.77a88.7,88.7,0,0,1,52.31,4.7"/><ellipse class="cls-6" cx="148.92" cy="242.93" rx="76.96" ry="75.8"/><ellipse class="cls-6" cx="279.83" cy="242.93" rx="76.96" ry="75.8"/><circle class="cls-7" cx="159.87" cy="241.21" r="37.08"/><ellipse class="cls-6" cx="156.29" cy="233.24" rx="8.21" ry="7.97"/><circle class="cls-7" cx="277.51" cy="241.21" r="37.08"/><ellipse class="cls-6" cx="274.15" cy="233.24" rx="8.21" ry="7.97"/><path class="cls-8" d="M273.71,345.15h0c0-8.21-26.57-14.86-59.34-14.86S155,336.94,155,345.15h0L214.37,392Z"/><path class="cls-8" d="M349.17,308.12h0c0-11.38-60.35-20.6-134.8-20.6s-134.8,9.22-134.8,20.6h0l134.8,64.93Z"/><path d="M162.92,180.78H50.69a40.51,40.51,0,0,0-40.64,40.38v25.3c0,45.85,37.4,83,83.54,83h0c60.21,0,109.48-49,109.48-108.78h0A40,40,0,0,0,162.92,180.78Zm16.27,49.63c0,44.3-36.48,80.55-81.06,80.55H90.81a61.69,61.69,0,0,1-61.89-61.49V218.35a22.17,22.17,0,0,1,22.24-22.1H153.41a25.7,25.7,0,0,1,25.78,25.61Z"/><path class="cls-9" d="M37,197.77h132.9a9.32,9.32,0,0,1,9.32,9.32v76.07a29.32,29.32,0,0,1-29.32,29.32H51.3A22.38,22.38,0,0,1,28.92,290.1V205.81a8,8,0,0,1,8-8Z"/><path d="M22.84,196.25h35v-8.12a7.39,7.39,0,0,0-7.39-7.34H7.39A7.39,7.39,0,0,0,0,188.13v16.24a7.39,7.39,0,0,0,7.39,7.34H22.84Z"/><path class="cls-10" d="M7.39,211.71h3.83a40.11,40.11,0,0,0-1.16,9.45v25.3a83.41,83.41,0,0,0,.45,8.67H197.39a107.17,107.17,0,0,0,5.69-34.44h0a40,40,0,0,0-40.16-39.91H7.39A7.39,7.39,0,0,0,0,188.13v16.24A7.39,7.39,0,0,0,7.39,211.71Zm21.53,6.64a22.17,22.17,0,0,1,22.24-22.1H153.41a25.7,25.7,0,0,1,25.78,25.61v1.52a25.7,25.7,0,0,0-25.78-25.61H51.16a22.17,22.17,0,0,0-22.24,22.1Z"/><path d="M226.34,220.69h0c0,59.83,49.26,108.78,109.48,108.78h0c46.14,0,83.54-37.17,83.54-83v-25.3a40.51,40.51,0,0,0-40.64-40.38H266.5A40,40,0,0,0,226.34,220.69Zm23.89,1.18A25.7,25.7,0,0,1,276,196.25H378.25a22.17,22.17,0,0,1,22.24,22.1v31.12A61.69,61.69,0,0,1,338.61,311h-7.32c-44.58,0-81.06-36.25-81.06-80.55Z"/><path class="cls-9" d="M272.62,197.77h98.56a29.32,29.32,0,0,1,29.32,29.32v76.07a9.32,9.32,0,0,1-9.32,9.32H258.28a8,8,0,0,1-8-8V220.15a22.38,22.38,0,0,1,22.38-22.38Z" transform="translate(650.73 510.25) rotate(180)"/><path d="M406.58,196.25h-35v-8.12a7.39,7.39,0,0,1,7.39-7.34H422a7.39,7.39,0,0,1,7.39,7.34v16.24a7.39,7.39,0,0,1-7.39,7.34H406.58Z"/><path class="cls-10" d="M429.42,204.37V188.13a7.39,7.39,0,0,0-7.39-7.34H266.5a40,40,0,0,0-40.16,39.91h0A107.17,107.17,0,0,0,232,255.13H418.9a83.41,83.41,0,0,0,.45-8.67v-25.3a40.11,40.11,0,0,0-1.16-9.45H422A7.39,7.39,0,0,0,429.42,204.37Zm-28.92,15.5a22.17,22.17,0,0,0-22.24-22.1H276a25.7,25.7,0,0,0-25.78,25.61v-1.52A25.7,25.7,0,0,1,276,196.25H378.25a22.17,22.17,0,0,1,22.24,22.1Z"/><path class="cls-11" d="M191.64,218.18c0-7.14,10.52-12.94,23.49-12.94s23.49,5.79,23.49,12.94"/><rect class="cls-6" x="10.06" y="193.58" width="5.33" height="5.33" rx="1.15" ry="1.15"/><rect class="cls-6" x="416.7" y="190.92" width="5.33" height="5.33" rx="1.15" ry="1.15" transform="translate(838.72 387.17) rotate(-180)"/><path class="cls-12" d="M286.59,57q-8.78-3.73-17.75-6.66a112.51,112.51,0,0,0-57-43.6v469a20.54,20.54,0,0,0,9.51-2.14l75.74-37.77C461.68,353.75,456.45,129,286.59,57Z"/></g></g></g></svg>