<svg xmlns="http://www.w3.org/2000/svg" viewBox="0 0 1100.3 270.5"><defs><style>.cls-1{fill:#97daff;}.cls-2{opacity:0.71;}.cls-3{fill:#bffff1;}</style></defs><title>Recurso 9</title><g id="Capa_2" data-name="Capa 2"><g id="Capa_1-2" data-name="Capa 1"><path class="cls-1" d="M203.91,115.38a37.92,37.92,0,0,1,34.82,22.91h39.4a75.71,75.71,0,1,0,0,30h-39.4a37.92,37.92,0,1,1-34.82-52.92Z"/><path class="cls-1" d="M366.78,77.59a75.71,75.71,0,1,0,75.71,75.71A75.71,75.71,0,0,0,366.78,77.59Zm0,113.62a37.91,37.91,0,1,1,37.91-37.91A37.91,37.91,0,0,1,366.78,191.21Z"/><path class="cls-1" d="M721.77,77.59A75.71,75.71,0,1,0,796,168.3h-39.4a37.92,37.92,0,0,1-72.74-15c0-.15,0-.3,0-.45h104a8.15,8.15,0,0,0,8.15-8.15v-5.08a5.14,5.14,0,0,0-.19-1.33H796A75.73,75.73,0,0,0,721.77,77.59Zm0,37.79a37.87,37.87,0,0,1,32.86,19H688.89A37.89,37.89,0,0,1,721.77,115.38Z"/><path class="cls-1" d="M590.13,109.14a75.71,75.71,0,1,0,0,88.3V229h38V0h-38Zm-61.48,82.06a37.91,37.91,0,1,1,37.91-37.91A37.91,37.91,0,0,1,528.65,191.21Z"/><polygon class="cls-1" points="877.66 128.49 849.88 76.62 795.52 76.62 877.66 229.96 959.79 76.62 905.44 76.62 877.66 128.49"/><polygon class="cls-1" points="124.64 270.5 124.64 204.74 69.94 153.29 124.64 101.85 124.64 36.08 0 153.29 124.64 270.5"/><polygon class="cls-1" points="975.65 36.08 975.65 101.85 1030.36 153.29 975.65 204.74 975.65 270.5 1100.3 153.29 975.65 36.08"/><g class="cls-2"><polygon class="cls-3" points="0 152.78 69.94 152.78 124.64 101.34 124.64 35.57 0 152.78"/><path class="cls-3" d="M203.91,114.87a37.92,37.92,0,0,1,34.82,22.91h39.4a75.71,75.71,0,0,0-149.93,15H166A37.91,37.91,0,0,1,203.91,114.87Z"/><path class="cls-3" d="M366.78,114.87a37.91,37.91,0,0,1,37.91,37.91h37.79a75.71,75.71,0,1,0-151.41,0h37.79A37.91,37.91,0,0,1,366.78,114.87Z"/><path class="cls-3" d="M490.76,152.79a37.9,37.9,0,0,1,75.78,0h61.59V.46h-38V109.6A75.68,75.68,0,0,0,453,152.79Z"/><path class="cls-3" d="M683.87,152.33h104a8.15,8.15,0,0,0,8.15-8.15v-5.08a5.14,5.14,0,0,0-.19-1.33H796a75.71,75.71,0,0,0-149.93,15h37.79C683.86,152.63,683.87,152.48,683.87,152.33Zm37.9-37.46a37.87,37.87,0,0,1,32.86,19H688.89A37.89,37.89,0,0,1,721.77,114.87Z"/><polygon class="cls-3" points="918.73 152.78 959.79 76.11 905.44 76.11 877.66 127.98 849.88 76.11 795.52 76.11 836.59 152.78 918.73 152.78"/><polygon class="cls-3" points="1100.3 152.78 975.65 35.57 975.65 101.34 1030.36 152.78 1100.3 152.78"/></g></g></g></svg>