<svg xmlns="http://www.w3.org/2000/svg" viewBox="0 0 1100.3 834.51"><defs><style>.cls-1{isolation:isolate;}.cls-2{fill:#97daff;}.cls-3{opacity:0.71;}.cls-4{fill:#bffff1;}.cls-11,.cls-5{fill:none;}.cls-5,.cls-8{stroke:#7fa7ff;}.cls-11,.cls-5,.cls-8{stroke-miterlimit:10;}.cls-5{stroke-width:3px;}.cls-10,.cls-6{fill:#fff;}.cls-12,.cls-7{fill:#7fa7ff;}.cls-8{fill:#9fd8ff;stroke-width:2px;}.cls-9{fill:#dcffeb;}.cls-10,.cls-9{opacity:0.31;}.cls-10,.cls-12,.cls-9{mix-blend-mode:multiply;}.cls-11{stroke:#000;stroke-width:5px;}.cls-12{opacity:0.3;}</style></defs><title>logotipo</title><g class="cls-1"><g id="Capa_1" data-name="Capa 1"><path class="cls-2" d="M613.76,802.13A37.92,37.92,0,0,1,648.58,825H688a75.71,75.71,0,1,0,0,30h-39.4a37.92,37.92,0,1,1-34.82-52.92Z" transform="translate(-409.85 -122.74)"/><path class="cls-2" d="M776.63,764.34A75.71,75.71,0,1,0,852.34,840,75.71,75.71,0,0,0,776.63,764.34Zm0,113.62A37.91,37.91,0,1,1,814.54,840,37.91,37.91,0,0,1,776.63,878Z" transform="translate(-409.85 -122.74)"/><path class="cls-2" d="M1131.62,764.34A75.71,75.71,0,1,0,1205.84,855h-39.4a37.92,37.92,0,0,1-72.74-15c0-.15,0-.3,0-.45h104a8.15,8.15,0,0,0,8.15-8.15v-5.08a5.14,5.14,0,0,0-.19-1.33h.19A75.73,75.73,0,0,0,1131.62,764.34Zm0,37.79a37.87,37.87,0,0,1,32.86,19h-65.74A37.89,37.89,0,0,1,1131.62,802.13Z" transform="translate(-409.85 -122.74)"/><path class="cls-2" d="M1000,795.9a75.71,75.71,0,1,0,0,88.3v31.56h38v-229h-38ZM938.5,878A37.91,37.91,0,1,1,976.41,840,37.91,37.91,0,0,1,938.5,878Z" transform="translate(-409.85 -122.74)"/><polygon class="cls-2" points="877.66 692.5 849.88 640.63 795.52 640.63 877.66 793.97 959.79 640.63 905.44 640.63 877.66 692.5"/><polygon class="cls-2" points="124.64 834.51 124.64 768.75 69.94 717.3 124.64 665.86 124.64 600.09 0 717.3 124.64 834.51"/><polygon class="cls-2" points="975.65 600.09 975.65 665.86 1030.36 717.3 975.65 768.75 975.65 834.51 1100.3 717.3 975.65 600.09"/><g class="cls-3"><polygon class="cls-4" points="0 716.79 69.94 716.79 124.64 665.35 124.64 599.58 0 716.79"/><path class="cls-4" d="M613.76,801.62a37.92,37.92,0,0,1,34.82,22.91H688a75.71,75.71,0,0,0-149.93,15h37.79A37.91,37.91,0,0,1,613.76,801.62Z" transform="translate(-409.85 -122.74)"/><path class="cls-4" d="M776.63,801.62a37.91,37.91,0,0,1,37.91,37.91h37.79a75.71,75.71,0,1,0-151.41,0h37.79A37.91,37.91,0,0,1,776.63,801.62Z" transform="translate(-409.85 -122.74)"/><path class="cls-4" d="M900.61,839.54a37.9,37.9,0,0,1,75.78,0H1038V687.21h-38V796.35a75.68,75.68,0,0,0-137.17,43.19Z" transform="translate(-409.85 -122.74)"/><path class="cls-4" d="M1093.72,839.08h104a8.15,8.15,0,0,0,8.15-8.15v-5.08a5.14,5.14,0,0,0-.19-1.33h.19a75.71,75.71,0,0,0-149.93,15h37.79C1093.71,839.39,1093.72,839.24,1093.72,839.08Zm37.9-37.46a37.87,37.87,0,0,1,32.86,19h-65.74A37.89,37.89,0,0,1,1131.62,801.62Z" transform="translate(-409.85 -122.74)"/><polygon class="cls-4" points="918.73 716.79 959.79 640.12 905.44 640.12 877.66 691.99 849.88 640.12 795.52 640.12 836.59 716.79 918.73 716.79"/><polygon class="cls-4" points="1100.3 716.79 975.65 599.58 975.65 665.35 1030.36 716.79 1100.3 716.79"/></g><path class="cls-4" d="M1032.15,206.56c-4-12.75-12.34-32.59-30.35-50.09-44.08-42.84-106.47-33.22-114.61-31.83a142.35,142.35,0,0,1,27.94,79.53c1.53,45.28-19.37,77.13-26.4,87,13.67-19.44,46.11-59.31,101.35-76.7A180.44,180.44,0,0,1,1032.15,206.56Z" transform="translate(-409.85 -122.74)"/><path class="cls-4" d="M1044.92,559.76l-75.74,37.77a20.57,20.57,0,0,1-18.36,0l-76.7-38.24c-160-79.77-160.23-296.21,1-373.67,27-13,55.46-20.76,84.84-20.76,25.63,0,50.54,5.93,74.41,16C1204.28,252.93,1209.5,477.7,1044.92,559.76Z" transform="translate(-409.85 -122.74)"/><path class="cls-4" d="M937.53,205.92A74.4,74.4,0,0,0,914,178c-31.29-22.09-68.76-10.11-73.63-8.46a87.75,87.75,0,0,1,17.11,102.34Z" transform="translate(-409.85 -122.74)"/><path class="cls-5" d="M967.9,198.07a74.4,74.4,0,0,0-36.25,4.27C896,216.27,885.32,254.13,884,259.11a88.7,88.7,0,0,1,52.31,4.7" transform="translate(-409.85 -122.74)"/><ellipse class="cls-6" cx="484.36" cy="242.93" rx="76.96" ry="75.8"/><ellipse class="cls-6" cx="615.26" cy="242.93" rx="76.96" ry="75.8"/><circle class="cls-7" cx="495.31" cy="241.21" r="37.08"/><ellipse class="cls-6" cx="491.72" cy="233.24" rx="8.21" ry="7.97"/><circle class="cls-7" cx="612.95" cy="241.21" r="37.08"/><ellipse class="cls-6" cx="609.59" cy="233.24" rx="8.21" ry="7.97"/><path class="cls-8" d="M1019,467.89h0c0-8.21-26.57-14.86-59.34-14.86s-59.34,6.65-59.34,14.86h0l59.34,46.85Z" transform="translate(-409.85 -122.74)"/><path class="cls-8" d="M1094.46,430.87h0c0-11.38-60.35-20.6-134.8-20.6s-134.8,9.22-134.8,20.6h0l134.8,64.93Z" transform="translate(-409.85 -122.74)"/><path d="M908.21,303.52H796a40.51,40.51,0,0,0-40.64,40.38v25.3c0,45.85,37.4,83,83.54,83h0c60.21,0,109.48-49,109.48-108.78h0A40,40,0,0,0,908.21,303.52Zm16.27,49.63c0,44.3-36.48,80.55-81.06,80.55H836.1a61.69,61.69,0,0,1-61.89-61.49V341.09A22.17,22.17,0,0,1,796.45,319H898.7a25.7,25.7,0,0,1,25.78,25.61Z" transform="translate(-409.85 -122.74)"/><path class="cls-9" d="M372.41,197.77H505.3a9.32,9.32,0,0,1,9.32,9.32v76.07a29.32,29.32,0,0,1-29.32,29.32H386.74a22.38,22.38,0,0,1-22.38-22.38V205.81A8,8,0,0,1,372.41,197.77Z"/><path d="M768.13,319h35v-8.12a7.39,7.39,0,0,0-7.39-7.34H752.68a7.39,7.39,0,0,0-7.39,7.34v16.24a7.39,7.39,0,0,0,7.39,7.34h15.45Z" transform="translate(-409.85 -122.74)"/><path class="cls-10" d="M752.68,334.46h3.83a40.11,40.11,0,0,0-1.16,9.45v25.3a83.41,83.41,0,0,0,.45,8.67H942.68a107.17,107.17,0,0,0,5.69-34.44h0a40,40,0,0,0-40.16-39.91H752.68a7.39,7.39,0,0,0-7.39,7.34v16.24A7.39,7.39,0,0,0,752.68,334.46Zm21.53,6.64A22.17,22.17,0,0,1,796.45,319H898.7a25.7,25.7,0,0,1,25.78,25.61v1.52a25.7,25.7,0,0,0-25.78-25.61H796.45a22.17,22.17,0,0,0-22.24,22.1Z" transform="translate(-409.85 -122.74)"/><path d="M971.63,343.43h0c0,59.83,49.26,108.78,109.48,108.78h0c46.14,0,83.54-37.17,83.54-83V343.9A40.51,40.51,0,0,0,1124,303.52H1011.79A40,40,0,0,0,971.63,343.43Zm23.89,1.18A25.7,25.7,0,0,1,1021.3,319h102.24a22.17,22.17,0,0,1,22.24,22.1v31.12a61.69,61.69,0,0,1-61.89,61.49h-7.32c-44.58,0-81.06-36.25-81.06-80.55Z" transform="translate(-409.85 -122.74)"/><path class="cls-9" d="M1017.91,320.51h98.56a29.32,29.32,0,0,1,29.32,29.32V425.9a9.32,9.32,0,0,1-9.32,9.32h-132.9a8,8,0,0,1-8-8V342.9a22.38,22.38,0,0,1,22.38-22.38Z" transform="translate(1731.46 633) rotate(180)"/><path d="M1151.87,319h-35v-8.12a7.39,7.39,0,0,1,7.39-7.34h43.06a7.39,7.39,0,0,1,7.39,7.34v16.24a7.39,7.39,0,0,1-7.39,7.34h-15.45Z" transform="translate(-409.85 -122.74)"/><path class="cls-10" d="M1174.71,327.11V310.87a7.39,7.39,0,0,0-7.39-7.34H1011.79a40,40,0,0,0-40.16,39.91h0a107.17,107.17,0,0,0,5.69,34.44H1164.2a83.41,83.41,0,0,0,.45-8.67V343.9a40.11,40.11,0,0,0-1.16-9.45h3.83A7.39,7.39,0,0,0,1174.71,327.11Zm-28.92,15.5a22.17,22.17,0,0,0-22.24-22.1H1021.3a25.7,25.7,0,0,0-25.78,25.61v-1.52A25.7,25.7,0,0,1,1021.3,319h102.24a22.17,22.17,0,0,1,22.24,22.1Z" transform="translate(-409.85 -122.74)"/><path class="cls-11" d="M936.93,340.93c0-7.14,10.52-12.94,23.49-12.94s23.49,5.79,23.49,12.94" transform="translate(-409.85 -122.74)"/><rect class="cls-6" x="345.5" y="193.58" width="5.33" height="5.33" rx="1.15" ry="1.15"/><rect class="cls-6" x="1161.99" y="313.66" width="5.33" height="5.33" rx="1.15" ry="1.15" transform="translate(1919.45 509.91) rotate(-180)"/><path class="cls-12" d="M1031.88,179.7q-8.78-3.73-17.75-6.66a112.51,112.51,0,0,0-57-43.6v469a20.54,20.54,0,0,0,9.51-2.14l75.74-37.77C1207,476.49,1201.74,251.73,1031.88,179.7Z" transform="translate(-409.85 -122.74)"/></g></g></svg>